<mxfile host="Electron" modified="2024-06-07T20:48:12.029Z" agent="Mozilla/5.0 (Windows NT 10.0; Win64; x64) AppleWebKit/537.36 (KHTML, like Gecko) draw.io/24.5.1 Chrome/124.0.6367.207 Electron/30.0.6 Safari/537.36" etag="aYICvEgKdRjl1XLeekr2" version="24.5.1" type="device">
  <diagram name="Page-1" id="B4lETyEyv0QjjmJJD_ht">
    <mxGraphModel dx="794" dy="511" grid="1" gridSize="10" guides="1" tooltips="1" connect="1" arrows="1" fold="1" page="1" pageScale="1" pageWidth="850" pageHeight="1100" math="0" shadow="0">
      <root>
        <mxCell id="0" />
        <mxCell id="1" parent="0" />
        <mxCell id="IspAf1iu42T4UUK-j65r-1" value="" style="shape=umlLifeline;perimeter=lifelinePerimeter;whiteSpace=wrap;html=1;container=1;dropTarget=0;collapsible=0;recursiveResize=0;outlineConnect=0;portConstraint=eastwest;newEdgeStyle={&quot;curved&quot;:0,&quot;rounded&quot;:0};participant=umlBoundary;" vertex="1" parent="1">
          <mxGeometry x="160" y="40" width="50" height="440" as="geometry" />
        </mxCell>
        <mxCell id="IspAf1iu42T4UUK-j65r-2" value="SearchForm" style="text;html=1;align=center;verticalAlign=middle;resizable=0;points=[];autosize=1;strokeColor=none;fillColor=none;" vertex="1" parent="1">
          <mxGeometry x="140" y="10" width="90" height="30" as="geometry" />
        </mxCell>
        <mxCell id="IspAf1iu42T4UUK-j65r-3" value="" style="shape=umlLifeline;perimeter=lifelinePerimeter;whiteSpace=wrap;html=1;container=1;dropTarget=0;collapsible=0;recursiveResize=0;outlineConnect=0;portConstraint=eastwest;newEdgeStyle={&quot;curved&quot;:0,&quot;rounded&quot;:0};participant=umlControl;" vertex="1" parent="1">
          <mxGeometry x="360" y="40" width="40" height="440" as="geometry" />
        </mxCell>
        <mxCell id="IspAf1iu42T4UUK-j65r-7" value="" style="html=1;points=[[0,0,0,0,5],[0,1,0,0,-5],[1,0,0,0,5],[1,1,0,0,-5]];perimeter=orthogonalPerimeter;outlineConnect=0;targetShapes=umlLifeline;portConstraint=eastwest;newEdgeStyle={&quot;curved&quot;:0,&quot;rounded&quot;:0};" vertex="1" parent="IspAf1iu42T4UUK-j65r-3">
          <mxGeometry x="15" y="110" width="10" height="40" as="geometry" />
        </mxCell>
        <mxCell id="IspAf1iu42T4UUK-j65r-4" value="MovieController" style="text;html=1;align=center;verticalAlign=middle;resizable=0;points=[];autosize=1;strokeColor=none;fillColor=none;" vertex="1" parent="1">
          <mxGeometry x="325" y="10" width="110" height="30" as="geometry" />
        </mxCell>
        <mxCell id="IspAf1iu42T4UUK-j65r-5" value="MovieService" style="shape=umlLifeline;perimeter=lifelinePerimeter;whiteSpace=wrap;html=1;container=1;dropTarget=0;collapsible=0;recursiveResize=0;outlineConnect=0;portConstraint=eastwest;newEdgeStyle={&quot;curved&quot;:0,&quot;rounded&quot;:0};" vertex="1" parent="1">
          <mxGeometry x="540" y="45" width="100" height="430" as="geometry" />
        </mxCell>
        <mxCell id="IspAf1iu42T4UUK-j65r-6" value="requestSearch()" style="html=1;verticalAlign=bottom;startArrow=circle;startFill=1;endArrow=open;startSize=6;endSize=8;curved=0;rounded=0;" edge="1" parent="1" target="IspAf1iu42T4UUK-j65r-1">
          <mxGeometry width="80" relative="1" as="geometry">
            <mxPoint x="50" y="120" as="sourcePoint" />
            <mxPoint x="190" y="120" as="targetPoint" />
          </mxGeometry>
        </mxCell>
        <mxCell id="IspAf1iu42T4UUK-j65r-8" value="search(categoryId, keyword)" style="html=1;verticalAlign=bottom;endArrow=block;curved=0;rounded=0;entryX=0;entryY=0;entryDx=0;entryDy=5;" edge="1" target="IspAf1iu42T4UUK-j65r-7" parent="1" source="IspAf1iu42T4UUK-j65r-1">
          <mxGeometry relative="1" as="geometry">
            <mxPoint x="305" y="155" as="sourcePoint" />
          </mxGeometry>
        </mxCell>
        <mxCell id="IspAf1iu42T4UUK-j65r-10" value="alt" style="shape=umlFrame;whiteSpace=wrap;html=1;pointerEvents=0;" vertex="1" parent="1">
          <mxGeometry x="260" y="200" width="540" height="240" as="geometry" />
        </mxCell>
        <mxCell id="IspAf1iu42T4UUK-j65r-12" value="" style="endArrow=none;dashed=1;html=1;dashPattern=1 3;strokeWidth=2;rounded=0;" edge="1" parent="1">
          <mxGeometry width="50" height="50" relative="1" as="geometry">
            <mxPoint x="259" y="290" as="sourcePoint" />
            <mxPoint x="800" y="290" as="targetPoint" />
          </mxGeometry>
        </mxCell>
        <mxCell id="IspAf1iu42T4UUK-j65r-13" value="[categoryId = -1]" style="text;html=1;align=center;verticalAlign=middle;resizable=0;points=[];autosize=1;strokeColor=none;fillColor=none;" vertex="1" parent="1">
          <mxGeometry x="260" y="228" width="110" height="30" as="geometry" />
        </mxCell>
        <mxCell id="IspAf1iu42T4UUK-j65r-14" value="CategoryService" style="shape=umlLifeline;perimeter=lifelinePerimeter;whiteSpace=wrap;html=1;container=1;dropTarget=0;collapsible=0;recursiveResize=0;outlineConnect=0;portConstraint=eastwest;newEdgeStyle={&quot;curved&quot;:0,&quot;rounded&quot;:0};" vertex="1" parent="1">
          <mxGeometry x="670" y="40" width="100" height="430" as="geometry" />
        </mxCell>
        <mxCell id="IspAf1iu42T4UUK-j65r-19" value="" style="html=1;points=[[0,0,0,0,5],[0,1,0,0,-5],[1,0,0,0,5],[1,1,0,0,-5]];perimeter=orthogonalPerimeter;outlineConnect=0;targetShapes=umlLifeline;portConstraint=eastwest;newEdgeStyle={&quot;curved&quot;:0,&quot;rounded&quot;:0};" vertex="1" parent="IspAf1iu42T4UUK-j65r-14">
          <mxGeometry x="45" y="270" width="10" height="40" as="geometry" />
        </mxCell>
        <mxCell id="IspAf1iu42T4UUK-j65r-15" value="" style="html=1;points=[[0,0,0,0,5],[0,1,0,0,-5],[1,0,0,0,5],[1,1,0,0,-5]];perimeter=orthogonalPerimeter;outlineConnect=0;targetShapes=umlLifeline;portConstraint=eastwest;newEdgeStyle={&quot;curved&quot;:0,&quot;rounded&quot;:0};" vertex="1" parent="1">
          <mxGeometry x="585" y="228" width="10" height="42" as="geometry" />
        </mxCell>
        <mxCell id="IspAf1iu42T4UUK-j65r-16" value="searchAllCategory(keyword)" style="html=1;verticalAlign=bottom;endArrow=block;curved=0;rounded=0;entryX=0;entryY=0;entryDx=0;entryDy=5;" edge="1" target="IspAf1iu42T4UUK-j65r-15" parent="1" source="IspAf1iu42T4UUK-j65r-3">
          <mxGeometry relative="1" as="geometry">
            <mxPoint x="485" y="233" as="sourcePoint" />
          </mxGeometry>
        </mxCell>
        <mxCell id="IspAf1iu42T4UUK-j65r-17" value="return" style="html=1;verticalAlign=bottom;endArrow=open;dashed=1;endSize=8;curved=0;rounded=0;" edge="1" source="IspAf1iu42T4UUK-j65r-15" parent="1">
          <mxGeometry relative="1" as="geometry">
            <mxPoint x="379.5" y="270" as="targetPoint" />
            <mxPoint x="555" y="270" as="sourcePoint" />
          </mxGeometry>
        </mxCell>
        <mxCell id="IspAf1iu42T4UUK-j65r-18" value="return" style="html=1;verticalAlign=bottom;endArrow=open;dashed=1;endSize=8;curved=0;rounded=0;" edge="1" parent="1">
          <mxGeometry relative="1" as="geometry">
            <mxPoint x="379.5" y="460" as="sourcePoint" />
            <mxPoint x="184.5" y="460" as="targetPoint" />
          </mxGeometry>
        </mxCell>
        <mxCell id="IspAf1iu42T4UUK-j65r-20" value="getReferenceById(categoryId)" style="html=1;verticalAlign=bottom;endArrow=block;curved=0;rounded=0;entryX=0;entryY=0;entryDx=0;entryDy=5;" edge="1" target="IspAf1iu42T4UUK-j65r-19" parent="1" source="IspAf1iu42T4UUK-j65r-3">
          <mxGeometry relative="1" as="geometry">
            <mxPoint x="645" y="315" as="sourcePoint" />
          </mxGeometry>
        </mxCell>
        <mxCell id="IspAf1iu42T4UUK-j65r-21" value="return" style="html=1;verticalAlign=bottom;endArrow=open;dashed=1;endSize=8;curved=0;rounded=0;exitX=0;exitY=1;exitDx=0;exitDy=-5;" edge="1" source="IspAf1iu42T4UUK-j65r-19" parent="1" target="IspAf1iu42T4UUK-j65r-3">
          <mxGeometry relative="1" as="geometry">
            <mxPoint x="645" y="385" as="targetPoint" />
          </mxGeometry>
        </mxCell>
        <mxCell id="IspAf1iu42T4UUK-j65r-22" value="" style="html=1;points=[[0,0,0,0,5],[0,1,0,0,-5],[1,0,0,0,5],[1,1,0,0,-5]];perimeter=orthogonalPerimeter;outlineConnect=0;targetShapes=umlLifeline;portConstraint=eastwest;newEdgeStyle={&quot;curved&quot;:0,&quot;rounded&quot;:0};" vertex="1" parent="1">
          <mxGeometry x="585" y="370" width="10" height="60" as="geometry" />
        </mxCell>
        <mxCell id="IspAf1iu42T4UUK-j65r-23" value="searchByCategory(categoryId, keyword)" style="html=1;verticalAlign=bottom;endArrow=block;curved=0;rounded=0;entryX=0;entryY=0;entryDx=0;entryDy=5;" edge="1" target="IspAf1iu42T4UUK-j65r-22" parent="1" source="IspAf1iu42T4UUK-j65r-3">
          <mxGeometry relative="1" as="geometry">
            <mxPoint x="485" y="365" as="sourcePoint" />
          </mxGeometry>
        </mxCell>
        <mxCell id="IspAf1iu42T4UUK-j65r-24" value="return" style="html=1;verticalAlign=bottom;endArrow=open;dashed=1;endSize=8;curved=0;rounded=0;exitX=0;exitY=1;exitDx=0;exitDy=-5;" edge="1" source="IspAf1iu42T4UUK-j65r-22" parent="1" target="IspAf1iu42T4UUK-j65r-3">
          <mxGeometry relative="1" as="geometry">
            <mxPoint x="485" y="435" as="targetPoint" />
          </mxGeometry>
        </mxCell>
      </root>
    </mxGraphModel>
  </diagram>
</mxfile>
